# xmcd
#
# Track frame offsets:
# 150
# 21888
# 45996
# 65408
# 87781
# 100646
# 120442
# 141418
# 160368
#
# Disc length: 2222 seconds
#
#
# Revision: 20
# Processed by: cddbd v1.5.2PL0 Copyright (c) Steve Scherf et al.
# Submitted via: FreeRIP 2.951 
#
DISCID=6b08ac09
DTITLE=Santana - Abraxas
DYEAR=1970
DGENRE=Rock
TTITLE0=Singing Winds, Crying Beasts
TTITLE1=Black Magic Woman
TTITLE2=Oye Como Va
TTITLE3=Incident At Neshabur
TTITLE4=Se A Cabo
TTITLE5=Mother's Daughter
TTITLE6=Samba Pa Ti
TTITLE7=Hope You're Feeling Better
TTITLE8=El Nicoya
EXTD=
EXTT0=
EXTT1=
EXTT2=
EXTT3=
EXTT4=
EXTT5=
EXTT6=
EXTT7=
EXTT8=
PLAYORDER=
